# xmcd
# Copyright (C) 1995-1998 Ti Kan
#
# Track frame offsets:
#       150
#       12081
#       27999
#       41703
#       56989
#       71998
#       89514
#       103322
#       116850
#       130595
#       148006
#       162457
#
# Disc length: 2343 seconds
#
# Revision: 1
# Processed by: cddbd v1.5.2PL0 Copyright (c) Steve Scherf et al.
# Submitted via: CD-Transfer v1.0
#
DISCID=b609250c
DTITLE=Diana - 
DYEAR=2006
DGENRE=
TTITLE0=Feierabend
TTITLE1=Was Macht Man Mit So Einem Mann
TTITLE2=La Dolce Vita
TTITLE3=Di Gitz Gitz Gäbi
TTITLE4=Hände Hoch Im Saal
TTITLE5=Pedro
TTITLE6=Da Ist Er Ja Schon Wieder
TTITLE7=Ohne Dich Zu Leben
TTITLE8=Heute Wird Die Nacht Zum Tag
TTITLE9=Bis Ich Zuhause Bin
TTITLE10=Das Erste Lächeln Nach Der Einsamkeit
TTITLE11=Die Kleinen Sünden Straft Der Herr Sofort
EXTD=
EXTT0=
EXTT1=
EXTT2=
EXTT3=
EXTT4=
EXTT5=
EXTT6=
EXTT7=
EXTT8=
EXTT9=
EXTT10=
EXTT11=
PLAYORDER=
